<svg xmlns="http://www.w3.org/2000/svg" viewBox="0 0 960 500" role="img"
     aria-label="Skema antarmuka: dashboard setelah silo aktif, dengan label silo Berawa dan Canggu di bagian atas">
  <rect width="960" height="500" fill="#F5F0E6"/>

  <rect x="28" y="28" width="904" height="444" rx="12" fill="#fff" stroke="#E8E2D6" stroke-width="2"/>
  <path d="M28 40a12 12 0 0 1 12-12h880a12 12 0 0 1 12 12v44H28z" fill="#2C2C2A"/>
  <rect x="52" y="47" width="74" height="14" rx="4" fill="#fff" opacity=".92"/>

  <!-- Chip silo aktif di top bar -->
  <rect x="700" y="42" width="208" height="28" rx="14" fill="#D85A30"/>
  <circle cx="720" cy="56" r="4.5" fill="#fff"/>
  <text x="734" y="61" font-family="Inter, system-ui, sans-serif" font-size="13"
        font-weight="600" fill="#fff">Silo: Berawa, Canggu</text>

  <!-- Sidebar diringkas -->
  <rect x="28" y="84" width="228" height="388" fill="#FBF8F2"/>
  <line x1="256" y1="84" x2="256" y2="472" stroke="#E8E2D6" stroke-width="2"/>
  <g fill="#E4DFD3">
    <rect x="56" y="130" width="150" height="12" rx="6"/>
    <rect x="56" y="166" width="122" height="12" rx="6"/>
    <rect x="56" y="202" width="140" height="12" rx="6"/>
    <rect x="56" y="238" width="112" height="12" rx="6"/>
  </g>

  <!-- Judul konten -->
  <rect x="288" y="118" width="212" height="16" rx="8" fill="#E8E2D6"/>

  <!-- Kartu KPI -->
  <g>
    <rect x="288" y="160" width="188" height="100" rx="10" fill="#fff" stroke="#EFEAE0" stroke-width="2"/>
    <rect x="308" y="180" width="86" height="10" rx="5" fill="#E4DFD3"/>
    <rect x="308" y="204" width="112" height="20" rx="6" fill="#2C2C2A"/>
    <rect x="308" y="234" width="60" height="9" rx="4.5" fill="#D85A30" opacity=".55"/>

    <rect x="500" y="160" width="188" height="100" rx="10" fill="#fff" stroke="#EFEAE0" stroke-width="2"/>
    <rect x="520" y="180" width="72" height="10" rx="5" fill="#E4DFD3"/>
    <rect x="520" y="204" width="96" height="20" rx="6" fill="#2C2C2A"/>
    <rect x="520" y="234" width="48" height="9" rx="4.5" fill="#D85A30" opacity=".55"/>

    <rect x="712" y="160" width="188" height="100" rx="10" fill="#fff" stroke="#EFEAE0" stroke-width="2"/>
    <rect x="732" y="180" width="94" height="10" rx="5" fill="#E4DFD3"/>
    <rect x="732" y="204" width="80" height="20" rx="6" fill="#2C2C2A"/>
    <rect x="732" y="234" width="66" height="9" rx="4.5" fill="#D85A30" opacity=".55"/>
  </g>

  <!-- Kartu grafik -->
  <rect x="288" y="284" width="612" height="156" rx="10" fill="#fff" stroke="#EFEAE0" stroke-width="2"/>
  <rect x="312" y="306" width="120" height="10" rx="5" fill="#E4DFD3"/>
  <g fill="#D85A30" opacity=".28">
    <rect x="312" y="376" width="46" height="44" rx="4"/>
    <rect x="382" y="352" width="46" height="68" rx="4"/>
    <rect x="452" y="392" width="46" height="28" rx="4"/>
    <rect x="522" y="338" width="46" height="82" rx="4"/>
    <rect x="592" y="366" width="46" height="54" rx="4"/>
    <rect x="662" y="330" width="46" height="90" rx="4"/>
    <rect x="732" y="384" width="46" height="36" rx="4"/>
    <rect x="802" y="358" width="46" height="62" rx="4"/>
  </g>
  <line x1="312" y1="420" x2="876" y2="420" stroke="#E8E2D6" stroke-width="2"/>

  <!-- Penanda langkah -->
  <circle cx="686" cy="24" r="17" fill="#D85A30"/>
  <text x="686" y="30" text-anchor="middle" font-family="Inter, system-ui, sans-serif"
        font-size="16" font-weight="700" fill="#fff">3</text>
</svg>
